<?xml version="1.0" standalone="no"?>
<!DOCTYPE svg PUBLIC "-//W3C//DTD SVG 20010904//EN"
 "http://www.w3.org/TR/2001/REC-SVG-20010904/DTD/svg10.dtd">
<svg version="1.0" xmlns="http://www.w3.org/2000/svg"
 width="190.000000pt" height="62.000000pt" viewBox="0 0 190.000000 62.000000"
 preserveAspectRatio="xMidYMid meet">

<g transform="translate(0.000000,62.000000) scale(0.100000,-0.100000)"
fill="#000000" stroke="none">
<path d="M755 593 c-62 -6 -136 -25 -133 -35 4 -12 6 -12 75 3 77 15 171 7
266 -25 58 -19 98 -26 158 -26 79 0 169 16 169 30 0 16 -13 16 -62 3 -81 -20
-155 -16 -259 16 -95 28 -159 39 -214 34z"/>
<path d="M735 524 c-55 -8 -115 -27 -115 -36 0 -6 12 -8 28 -4 15 4 68 9 117
13 82 5 97 3 170 -23 70 -25 94 -29 190 -29 64 1 122 6 138 13 49 21 20 30
-45 15 -79 -19 -166 -12 -261 21 -73 24 -167 37 -222 30z"/>
<path d="M715 454 c-11 -3 -37 -10 -59 -15 -26 -7 -35 -14 -28 -21 6 -6 22 -6
48 1 74 21 186 14 271 -16 67 -24 93 -28 183 -27 106 0 173 15 153 35 -6 6
-19 6 -39 -2 -16 -6 -69 -12 -119 -12 -72 0 -105 6 -165 27 -73 26 -200 41
-245 30z"/>
<path d="M840 198 l0 -173 105 3 105 3 0 98 0 98 -92 64 c-50 35 -98 68 -105
72 -11 6 -13 -25 -13 -165z"/>
</g>
</svg>
